<svg width="194" height="85" viewBox="0 0 194 85" fill="none" xmlns="http://www.w3.org/2000/svg">
<path d="M187.721 47.1755C187.466 55.2466 184.644 63.0263 179.665 69.3837C174.686 75.7411 167.809 80.345 160.034 82.5262C152.259 84.7075 143.991 84.3524 136.432 81.5126C128.872 78.6728 122.416 73.4963 118 66.7355L118.011 66.7235L118.059 66.6995C118.071 66.6995 118.071 66.6875 118.083 66.6875C118.095 66.6635 118.107 66.6635 118.119 66.6515L130.211 58.7515L181.556 25.1875V25.1995C181.687 25.3905 181.806 25.5815 181.926 25.7845C182.213 26.2265 182.476 26.6845 182.738 27.1475C182.989 27.5775 183.228 28.0075 183.455 28.4475C183.802 29.0925 184.125 29.7615 184.411 30.4315C184.555 30.7295 184.687 31.0295 184.806 31.3315C184.997 31.7735 185.164 32.2035 185.331 32.6575C185.463 32.9805 185.57 33.3145 185.678 33.6495C185.778 33.9005 185.857 34.1495 185.941 34.4135C186.263 35.4295 186.55 36.4575 186.789 37.5085C187.522 40.6761 187.835 43.9262 187.721 47.1755Z" fill="url(#paint0_linear)"/>
<g style="mix-blend-mode:multiply" opacity="0.16">
<g style="mix-blend-mode:multiply" opacity="0.16">
<path d="M186.789 37.5084L118 66.7354L181.556 25.1894C184.016 28.9535 185.788 33.1246 186.789 37.5084Z" fill="black"/>
</g>
</g>
<path d="M193.78 17.2074L193.768 17.2195C193.756 17.2195 193.743 17.2434 193.72 17.2434C193.706 17.2654 193.685 17.2822 193.66 17.2914L181.561 25.2014L130.215 58.7534C130.084 58.5534 129.964 58.3594 129.845 58.1534C124.598 49.8418 122.801 39.8116 124.834 30.1954C125.102 28.9253 125.433 27.6694 125.826 26.4324C125.836 26.413 125.844 26.3929 125.85 26.3725C125.861 26.315 125.877 26.2587 125.898 26.2045C128.088 19.4757 132.115 13.4932 137.525 8.93264C142.935 4.37205 149.513 1.41511 156.515 0.395786C163.517 -0.623533 170.664 0.335392 177.15 3.16425C183.636 5.99311 189.202 10.5791 193.218 16.4044C193.235 16.4235 193.251 16.4436 193.266 16.4644C193.446 16.7054 193.615 16.9564 193.78 17.2074Z" fill="url(#paint1_linear)"/>
<g style="mix-blend-mode:multiply" opacity="0.25">
<g style="mix-blend-mode:multiply" opacity="0.25">
<path d="M181.926 25.7864C178.544 28.1764 174.613 30.8864 170.371 33.7564C168.171 35.2384 165.915 36.7914 163.585 38.3214C161.255 39.8514 158.9 41.4154 156.547 42.9694C154.169 44.5104 151.791 46.0404 149.447 47.5574C147.105 49.0514 144.787 50.5214 142.553 51.9424C138.06 54.7744 133.853 57.3794 130.209 59.5664C126.589 61.7764 123.509 63.5334 121.379 64.7994C119.503 65.8994 118.32 66.5564 118.057 66.6994C118.071 66.6773 118.092 66.6604 118.117 66.6514L181.554 25.1894C181.687 25.3804 181.806 25.5834 181.926 25.7864Z" fill="black"/>
</g>
</g>
<g style="mix-blend-mode:screen" opacity="0.7">
<g style="mix-blend-mode:screen" opacity="0.7">
<path d="M193.72 17.2434C193.705 17.2653 193.684 17.2821 193.66 17.2914L130.214 58.7534C130.083 58.5534 129.963 58.3594 129.844 58.1534C133.226 55.7754 137.169 53.0534 141.41 50.1834C143.61 48.7014 145.879 47.1724 148.197 45.6184C150.515 44.0894 152.881 42.5244 155.235 40.9704C157.613 39.4294 159.991 37.8994 162.335 36.3824C164.679 34.8654 166.995 33.4194 169.229 31.9974C173.71 29.1654 177.929 26.5604 181.572 24.3614C185.193 22.1514 188.272 20.4064 190.403 19.1404C192.274 18.0434 193.457 17.3864 193.72 17.2434Z" fill="white"/>
</g>
</g>
<g style="mix-blend-mode:screen" opacity="0.25">
<g style="mix-blend-mode:screen" opacity="0.25">
<path d="M182.966 45.8603C182.974 48.1817 182.734 50.4972 182.249 52.7673C181.364 57.0367 179.645 61.0894 177.191 64.6927C174.736 68.2961 171.594 71.3792 167.945 73.765C164.295 76.1509 160.211 77.7925 155.925 78.5957C151.64 79.3988 147.238 79.3478 142.973 78.4453C135.961 77.0049 129.613 73.3125 124.894 67.9303L125.241 67.7033L182.966 45.8603Z" fill="white"/>
</g>
</g>
<g style="mix-blend-mode:screen" opacity="0.25">
<g style="mix-blend-mode:screen" opacity="0.25">
<path d="M186.885 16.0125L186.204 16.4545L129.423 31.6175C129.447 31.4745 129.47 31.3175 129.506 31.1755C130.393 26.9053 132.115 22.8523 134.572 19.2489C137.029 15.6455 140.173 12.5626 143.825 10.177C147.476 7.79139 151.562 6.15001 155.849 5.34701C160.136 4.544 164.539 4.59517 168.806 5.49755C175.815 6.94369 182.162 10.6351 186.885 16.0125Z" fill="white"/>
</g>
</g>
<g style="mix-blend-mode:multiply" opacity="0.16">
<g style="mix-blend-mode:multiply" opacity="0.16">
<path d="M187.721 47.1755C187.466 55.2467 184.644 63.0263 179.665 69.3837C174.686 75.7411 167.809 80.345 160.034 82.5263C152.259 84.7075 143.991 84.3524 136.432 81.5127C128.872 78.6729 122.416 73.4964 118 66.7355C119.209 68.3274 120.513 69.8438 121.907 71.2765C124.708 74.0676 127.904 76.431 131.394 78.2905C134.85 80.1339 138.57 81.4316 142.423 82.1375L145.315 82.5435C146.282 82.7115 147.262 82.6635 148.23 82.7345L149.688 82.7945L151.146 82.7235C152.113 82.7017 153.078 82.6256 154.037 82.4955L156.917 82.0535L159.737 81.3375C160.693 81.1375 161.589 80.7275 162.509 80.4375C163.431 80.1323 164.33 79.761 165.198 79.3265C166.966 78.5232 168.671 77.5872 170.298 76.5265L172.687 74.8415C173.44 74.2325 174.169 73.5875 174.91 72.9535C175.642 72.3094 176.34 71.6274 177.001 70.9105L178.029 69.8595L178.937 68.7245C180.179 67.2085 181.313 65.6073 182.33 63.9325L183.716 61.3275C184.206 60.4675 184.493 59.5355 184.899 58.6395C185.09 58.1855 185.299 57.7395 185.473 57.2775L185.915 55.8435C186.19 54.8875 186.56 53.9195 186.763 52.9755C187.203 51.064 187.523 49.1269 187.721 47.1755Z" fill="black"/>
</g>
</g>
<g style="mix-blend-mode:screen" opacity="0.7">
<g style="mix-blend-mode:screen" opacity="0.7">
<path d="M193.214 16.4063C193.114 16.2873 192.963 16.1063 192.76 15.8693C192.389 15.3793 191.76 14.7103 191.003 13.8383C188.836 11.5243 186.406 9.47113 183.762 7.72038C182.02 6.55436 180.186 5.53135 178.278 4.66137C176.161 3.71157 173.966 2.94379 171.718 2.36637C171.144 2.21137 170.499 2.09237 169.889 1.94837C169.328 1.81737 168.683 1.76938 168.089 1.66238C167.468 1.57838 166.858 1.49438 166.237 1.39938C165.604 1.32738 164.983 1.31537 164.349 1.26737C163.716 1.24337 163.083 1.18438 162.449 1.16738L160.526 1.23838C159.245 1.27461 157.968 1.39452 156.702 1.59738C156.067 1.66327 155.436 1.77084 154.814 1.91938L152.926 2.31938C151.695 2.62938 150.477 3.06038 149.27 3.43038C148.111 3.93038 146.916 4.33838 145.805 4.88838C145.255 5.16338 144.705 5.44937 144.156 5.72437L143.331 6.14236L142.567 6.62039C141.551 7.27839 140.511 7.85137 139.591 8.58037C137.79 9.88416 136.107 11.3434 134.561 12.9413C133.835 13.6486 133.153 14.399 132.517 15.1883C131.908 15.9523 131.323 16.6933 130.773 17.3883C130.273 18.1413 129.805 18.8343 129.351 19.5033C128.479 20.8303 127.893 22.0963 127.308 23.1033C126.483 24.9673 125.97 26.1263 125.85 26.3773C125.843 26.3978 125.835 26.4179 125.826 26.4373C125.826 26.4373 125.85 26.3533 125.898 26.2093C128.087 19.4806 132.115 13.4981 137.525 8.93754C142.935 4.37695 149.512 1.41999 156.514 0.400669C163.517 -0.61865 170.664 0.340274 177.15 3.16914C183.636 5.998 189.201 10.584 193.218 16.4093L193.214 16.4063Z" fill="white"/>
</g>
</g>
<g filter="url(#filter0_d)">
<path d="M10.8438 67H4.11719V33.3906H10.8438V67ZM22.8203 67H16.4219V41.8984H17.9688L20.0781 44.3359C21.1094 43.3984 22.2734 42.6797 23.5703 42.1797C24.8828 41.6641 26.25 41.4062 27.6719 41.4062C29.2031 41.4062 30.6484 41.7031 32.0078 42.2969C33.3672 42.875 34.5547 43.6797 35.5703 44.7109C36.5859 45.7266 37.3828 46.9219 37.9609 48.2969C38.5547 49.6562 38.8516 51.1094 38.8516 52.6562V67H32.4531V52.6562C32.4531 52 32.3281 51.3828 32.0781 50.8047C31.8281 50.2109 31.4844 49.6953 31.0469 49.2578C30.6094 48.8203 30.1016 48.4766 29.5234 48.2266C28.9453 47.9766 28.3281 47.8516 27.6719 47.8516C27 47.8516 26.3672 47.9766 25.7734 48.2266C25.1797 48.4766 24.6641 48.8203 24.2266 49.2578C23.7891 49.6953 23.4453 50.2109 23.1953 50.8047C22.9453 51.3828 22.8203 52 22.8203 52.6562V67ZM61.2812 54.2266C61.2812 53.3516 61.1094 52.5078 60.7656 51.6953C60.4375 50.8672 59.9844 50.1406 59.4062 49.5156C58.8281 48.875 58.1484 48.3672 57.3672 47.9922C56.6016 47.6016 55.7812 47.4062 54.9062 47.4062C54.0312 47.4062 53.2031 47.5547 52.4219 47.8516C51.6562 48.1484 50.9844 48.5859 50.4062 49.1641C49.8438 49.7422 49.3984 50.4609 49.0703 51.3203C48.7422 52.1641 48.5781 53.1328 48.5781 54.2266C48.5781 55.2734 48.7422 56.2188 49.0703 57.0625C49.3984 57.8906 49.8438 58.6016 50.4062 59.1953C50.9844 59.7891 51.6562 60.25 52.4219 60.5781C53.2031 60.8906 54.0312 61.0469 54.9062 61.0469C55.7812 61.0469 56.6016 60.8594 57.3672 60.4844C58.1484 60.0938 58.8281 59.5859 59.4062 58.9609C59.9844 58.3203 60.4375 57.5938 60.7656 56.7812C61.1094 55.9531 61.2812 55.1016 61.2812 54.2266ZM67.7266 63.8359C67.7266 65.6016 67.3906 67.2578 66.7188 68.8047C66.0469 70.3516 65.125 71.7031 63.9531 72.8594C62.7969 74.0156 61.4375 74.9297 59.875 75.6016C58.3281 76.2734 56.6719 76.6094 54.9062 76.6094L51.6953 76.5625V70.1641L54.8594 70.2109C55.8594 70.2109 56.7109 70.0781 57.4141 69.8125C58.1172 69.5625 58.7109 69.2109 59.1953 68.7578C59.6797 68.3203 60.0625 67.8125 60.3438 67.2344C60.6406 66.6562 60.875 66.0469 61.0469 65.4062C60.7969 65.8125 60.4375 66.1484 59.9688 66.4141C59.5 66.6641 58.9766 66.8672 58.3984 67.0234C57.8359 67.1953 57.2422 67.3125 56.6172 67.375C56.0078 67.4375 55.4375 67.4688 54.9062 67.4688C53.1406 67.4688 51.4766 67.1641 49.9141 66.5547C48.3672 65.9453 47.0078 65.0781 45.8359 63.9531C44.6797 62.8125 43.7656 61.4219 43.0938 59.7812C42.4219 58.1406 42.0859 56.2891 42.0859 54.2266C42.0859 52.3359 42.4219 50.5781 43.0938 48.9531C43.7656 47.3281 44.6797 45.9219 45.8359 44.7344C47.0078 43.5469 48.3672 42.6172 49.9141 41.9453C51.4766 41.2734 53.1406 40.9375 54.9062 40.9375C55.7188 40.9375 56.5234 41.0391 57.3203 41.2422C58.1172 41.4453 58.8906 41.7266 59.6406 42.0859C60.3906 42.4453 61.1016 42.8672 61.7734 43.3516C62.4609 43.8359 63.1016 44.3594 63.6953 44.9219L66.1797 41.9453H67.7266V63.8359ZM79.0234 67H72.625V41.8984H74.1719L76.2812 44.875C77.3125 43.9375 78.4844 43.2188 79.7969 42.7188C81.1094 42.2031 82.4688 41.9453 83.875 41.9453H89.5234V48.3203H83.875C83.2031 48.3203 82.5703 48.4453 81.9766 48.6953C81.3828 48.9453 80.8672 49.2891 80.4297 49.7266C79.9922 50.1641 79.6484 50.6797 79.3984 51.2734C79.1484 51.8672 79.0234 52.5 79.0234 53.1719V67Z" fill="#D3E9DC"/>
<path d="M102.484 60.8594C102.734 60.9375 102.984 60.9922 103.234 61.0234C103.484 61.0391 103.734 61.0469 103.984 61.0469C104.609 61.0469 105.211 60.9609 105.789 60.7891C106.367 60.6172 106.906 60.375 107.406 60.0625C107.922 59.7344 108.375 59.3438 108.766 58.8906C109.172 58.4219 109.5 57.9062 109.75 57.3438L114.438 62.0547C113.844 62.8984 113.156 63.6562 112.375 64.3281C111.609 65 110.773 65.5703 109.867 66.0391C108.977 66.5078 108.031 66.8594 107.031 67.0938C106.047 67.3438 105.031 67.4688 103.984 67.4688C102.219 67.4688 100.555 67.1406 98.9922 66.4844C97.4453 65.8281 96.0859 64.9141 94.9141 63.7422C93.7578 62.5703 92.8438 61.1797 92.1719 59.5703C91.5 57.9453 91.1641 56.1641 91.1641 54.2266C91.1641 52.2422 91.5 50.4297 92.1719 48.7891C92.8438 47.1484 93.7578 45.75 94.9141 44.5938C96.0859 43.4375 97.4453 42.5391 98.9922 41.8984C100.555 41.2578 102.219 40.9375 103.984 40.9375C105.031 40.9375 106.055 41.0625 107.055 41.3125C108.055 41.5625 109 41.9219 109.891 42.3906C110.797 42.8594 111.641 43.4375 112.422 44.125C113.203 44.7969 113.891 45.5547 114.484 46.3984L102.484 60.8594ZM105.766 47.6641C105.469 47.5547 105.172 47.4844 104.875 47.4531C104.594 47.4219 104.297 47.4062 103.984 47.4062C103.109 47.4062 102.281 47.5703 101.5 47.8984C100.734 48.2109 100.062 48.6641 99.4844 49.2578C98.9219 49.8516 98.4766 50.5703 98.1484 51.4141C97.8203 52.2422 97.6562 53.1797 97.6562 54.2266C97.6562 54.4609 97.6641 54.7266 97.6797 55.0234C97.7109 55.3203 97.75 55.625 97.7969 55.9375C97.8594 56.2344 97.9297 56.5234 98.0078 56.8047C98.0859 57.0859 98.1875 57.3359 98.3125 57.5547L105.766 47.6641Z" fill="#2F3130"/>
<path d="M141.977 67H140.43L137.945 63.5547C137.336 64.1016 136.688 64.6172 136 65.1016C135.328 65.5703 134.617 65.9844 133.867 66.3438C133.117 66.6875 132.344 66.9609 131.547 67.1641C130.766 67.3672 129.969 67.4688 129.156 67.4688C127.391 67.4688 125.727 67.1406 124.164 66.4844C122.617 65.8125 121.258 64.8906 120.086 63.7188C118.93 62.5312 118.016 61.1328 117.344 59.5234C116.672 57.8984 116.336 56.1328 116.336 54.2266C116.336 52.3359 116.672 50.5781 117.344 48.9531C118.016 47.3281 118.93 45.9219 120.086 44.7344C121.258 43.5469 122.617 42.6172 124.164 41.9453C125.727 41.2734 127.391 40.9375 129.156 40.9375C129.719 40.9375 130.297 40.9844 130.891 41.0781C131.5 41.1719 132.086 41.3281 132.648 41.5469C133.227 41.75 133.766 42.0234 134.266 42.3672C134.766 42.7109 135.188 43.1328 135.531 43.6328V31.9141H141.977V67ZM135.531 54.2266C135.531 53.3516 135.359 52.5078 135.016 51.6953C134.688 50.8672 134.234 50.1406 133.656 49.5156C133.078 48.875 132.398 48.3672 131.617 47.9922C130.852 47.6016 130.031 47.4062 129.156 47.4062C128.281 47.4062 127.453 47.5625 126.672 47.875C125.906 48.1875 125.234 48.6406 124.656 49.2344C124.094 49.8125 123.648 50.5234 123.32 51.3672C122.992 52.2109 122.828 53.1641 122.828 54.2266C122.828 55.1484 122.992 56.0234 123.32 56.8516C123.648 57.6797 124.094 58.4062 124.656 59.0312C125.234 59.6562 125.906 60.1484 126.672 60.5078C127.453 60.8672 128.281 61.0469 129.156 61.0469C130.031 61.0469 130.852 60.8594 131.617 60.4844C132.398 60.0938 133.078 59.5859 133.656 58.9609C134.234 58.3203 134.688 57.5938 135.016 56.7812C135.359 55.9531 135.531 55.1016 135.531 54.2266Z" fill="#2F3130"/>
</g>
<defs>
<filter id="filter0_d" x="0.117188" y="31.9141" width="145.859" height="52.6953" filterUnits="userSpaceOnUse" color-interpolation-filters="sRGB">
<feFlood flood-opacity="0" result="BackgroundImageFix"/>
<feColorMatrix in="SourceAlpha" type="matrix" values="0 0 0 0 0 0 0 0 0 0 0 0 0 0 0 0 0 0 127 0"/>
<feOffset dy="4"/>
<feGaussianBlur stdDeviation="2"/>
<feColorMatrix type="matrix" values="0 0 0 0 0 0 0 0 0 0 0 0 0 0 0 0 0 0 0.25 0"/>
<feBlend mode="normal" in2="BackgroundImageFix" result="effect1_dropShadow"/>
<feBlend mode="normal" in="SourceGraphic" in2="effect1_dropShadow" result="shape"/>
</filter>
<linearGradient id="paint0_linear" x1="140.946" y1="81.2348" x2="166.813" y2="21.4457" gradientUnits="userSpaceOnUse">
<stop stop-color="#DEC910"/>
<stop offset="1" stop-color="#EC511F"/>
</linearGradient>
<linearGradient id="paint1_linear" x1="166.084" y1="4.70028" x2="151.615" y2="60.2801" gradientUnits="userSpaceOnUse">
<stop stop-color="#26AE60"/>
<stop offset="1" stop-color="#00FC92"/>
</linearGradient>
</defs>
</svg>
